<svg xmlns="http://www.w3.org/2000/svg" xmlns:xlink="http://www.w3.org/1999/xlink" width="80" height="75" viewBox="0 0 80 75">
    <defs>
        <path id="a" d="M0 0h80v80H0z"/>
    </defs>
    <g fill="none" fill-rule="evenodd" transform="translate(0 -3)">
        <mask id="b" fill="#fff">
            <use xlink:href="#a"/>
        </mask>
        <g fill-rule="nonzero" mask="url(#b)">
            <path fill="#9B9B9B" d="M73.333 37.667H42.667v2.666h30.666a4 4 0 0 1 4 4V71a4 4 0 0 1-4 4h-48a4 4 0 0 1-4-4v-9.333h-2.666V71a6.675 6.675 0 0 0 6.666 6.667h48A6.675 6.675 0 0 0 80 71V44.333a6.675 6.675 0 0 0-6.667-6.666z"/>
            <path fill="#9B9B9B" d="M54.667 64.333a5.304 5.304 0 0 0 8.653 4.142 5.333 5.333 0 1 0 0-8.283 5.304 5.304 0 0 0-8.653 4.141zm14.666 0A2.667 2.667 0 0 1 66.667 67a2.622 2.622 0 0 1-1.733-.648 5.266 5.266 0 0 0 0-4.038c.48-.419 1.095-.65 1.733-.647a2.667 2.667 0 0 1 2.666 2.666zM60 61.667A2.667 2.667 0 1 1 60 67a2.667 2.667 0 0 1 0-5.333zM26.667 61.667h2.666v2.666h-2.666zM32 61.667h2.667v2.666H32zM37.333 61.667H40v2.666h-2.667zM42.667 61.667h2.666v2.666h-2.666zM26.667 67h18.666v2.667H26.667z"/>
            <path fill="#F8172F" d="M40 55V25.667c0-.737-.597-1.334-1.333-1.334H36V15c-.008-6.624-5.376-11.992-12-12h-8C9.376 3.008 4.008 8.376 4 15v9.333H1.333C.597 24.333 0 24.93 0 25.667V55a4 4 0 0 0 4 4h32a4 4 0 0 0 4-4zM6.667 15A9.344 9.344 0 0 1 16 5.667h8A9.344 9.344 0 0 1 33.333 15v9.333H6.667V15zm-4 40V27h34.666v28c0 .736-.597 1.333-1.333 1.333H4A1.333 1.333 0 0 1 2.667 55z"/>
            <path fill="#F8172F" d="M20 36.333a3.99 3.99 0 0 0-1.333 7.755v5.579h2.666v-5.58A3.991 3.991 0 0 0 20 36.334zm0 5.334A1.333 1.333 0 1 1 20 39a1.333 1.333 0 0 1 0 2.667z"/>
        </g>
    </g>
</svg>
