<svg xmlns="http://www.w3.org/2000/svg" xmlns:xlink="http://www.w3.org/1999/xlink" width="70" height="80" viewBox="0 0 70 80">
    <defs>
        <path id="a" d="M0 0h80v80H0z"/>
    </defs>
    <g fill="none" fill-rule="evenodd" transform="translate(-5)">
        <mask id="b" fill="#fff">
            <use xlink:href="#a"/>
        </mask>
        <g fill-rule="nonzero" mask="url(#b)">
            <path fill="#F8172F" d="M26.354 76a5.333 5.333 0 1 1 0-10.667 5.333 5.333 0 0 1 0 10.667zm0-8a2.667 2.667 0 1 0 0 5.333 2.667 2.667 0 0 0 0-5.333zM49.02 64H6.355a1.333 1.333 0 0 1 0-2.667h42.667a1.333 1.333 0 1 1 0 2.667zM49.02 10.667H6.355a1.333 1.333 0 0 1 0-2.667h42.667a1.333 1.333 0 1 1 0 2.667zM27.688 6.667h-5.334a1.333 1.333 0 0 1 0-2.667h5.334a1.333 1.333 0 0 1 0 2.667zM33.02 6.667h-1.332a1.333 1.333 0 0 1 0-2.667h1.333a1.333 1.333 0 0 1 0 2.667z"/>
            <path fill="#F8172F" d="M44.48 80H10.895a5.88 5.88 0 0 1-5.874-5.874V5.874A5.88 5.88 0 0 1 10.895 0H44.48a5.88 5.88 0 0 1 5.874 5.874v68.253A5.881 5.881 0 0 1 44.48 80zM10.895 2.667a3.21 3.21 0 0 0-3.207 3.207v68.252a3.21 3.21 0 0 0 3.207 3.207H44.48a3.21 3.21 0 0 0 3.208-3.207V5.874a3.21 3.21 0 0 0-3.208-3.207H10.895z"/>
            <path fill="#FFF" d="M26 18h46v24H26z"/>
            <path fill="#9B9B9B" d="M30.354 52a1.333 1.333 0 0 1-1.333-1.333V44h-4a1.333 1.333 0 0 1-1.334-1.333V17.333A1.333 1.333 0 0 1 25.021 16h48a1.333 1.333 0 0 1 1.333 1.333v25.334A1.333 1.333 0 0 1 73.021 44H41.465l-10.31 7.733a1.33 1.33 0 0 1-.8.267zm-4-10.667h4a1.333 1.333 0 0 1 1.334 1.334V48l8.533-6.4c.23-.173.512-.267.8-.267h30.667V18.667H26.353v22.666z"/>
            <path fill="#9B9B9B" d="M46.354 28H33.021a1.333 1.333 0 0 1 0-2.667h13.333a1.333 1.333 0 0 1 0 2.667zM65.02 34.667h-32a1.333 1.333 0 0 1 0-2.667h32a1.333 1.333 0 1 1 0 2.667z"/>
        </g>
    </g>
</svg>
