<svg xmlns="http://www.w3.org/2000/svg" xmlns:xlink="http://www.w3.org/1999/xlink" width="79" height="80" viewBox="0 0 79 80">
    <defs>
        <path id="a" d="M0 0h80v80H0z"/>
    </defs>
    <g fill="none" fill-rule="evenodd" transform="translate(-1)">
        <mask id="b" fill="#fff">
            <use xlink:href="#a"/>
        </mask>
        <g fill-rule="nonzero" mask="url(#b)">
            <path fill="#F8172F" d="M3.661 68.39l.002 9.03a1.29 1.29 0 1 1-2.581 0l-.001-9.03c0-6.404 5.21-11.615 11.615-11.615l7.74.002v-6.105c0-.714.576-1.29 1.29-1.29.714 0 1.29.576 1.29 1.29v6.598l4.448 2.22a1.29 1.29 0 1 1-1.152 2.309l-4.89-2.442h-8.726c-4.982 0-9.035 4.052-9.035 9.034zM40.094 59.356l-4.89 2.442a1.288 1.288 0 0 1-1.73-.578 1.29 1.29 0 0 1 .579-1.731l4.447-2.22v-6.597c0-.714.576-1.29 1.29-1.29.714 0 1.29.576 1.29 1.29v6.104h3.872a1.29 1.29 0 1 1 0 2.581h-4.858z"/>
            <path fill="#F8172F" d="M3.126 79.944a2.585 2.585 0 0 1-2.044-2.525 1.29 1.29 0 1 1 2.58 0h41.354c.59 0 1.066.577 1.066 1.29 0 .715-.476 1.291-1.066 1.291H3.438a.898.898 0 0 1-.312-.056z"/>
            <path fill="#FA3A4E" d="M53.976 26.949a1.289 1.289 0 0 1-1.282 1.438h-1.29v5.163c0 11.383-9.263 20.645-20.646 20.645-11.383 0-20.645-9.262-20.645-20.645v-5.163h-1.29a1.289 1.289 0 0 1-.89-2.225c.664-.67 6.06-5.516 22.825-5.516 16.766 0 22.16 4.846 22.826 5.516a1.286 1.286 0 0 1 .392.787zm-6.055-1.143c-3.14-1.25-8.514-2.58-17.163-2.58-8.644 0-14.016 1.328-17.16 2.58h34.323zm-35.227 2.581v5.163c0 9.961 8.102 18.064 18.064 18.064s18.065-8.103 18.065-18.064v-5.163h-36.13z"/>
            <path fill="#FA3A4E" d="M12.694 21.935v3.432a1.29 1.29 0 1 1-2.581 0v-3.432c0-10.95 8.57-19.936 19.355-20.605v-.04c0-.714.576-1.29 1.29-1.29.714 0 1.29.576 1.29 1.29v.04C42.833 2 51.403 10.986 51.403 21.935v3.432a1.29 1.29 0 1 1-2.58 0v-3.432c0-9.961-8.103-18.064-18.065-18.064-9.962 0-18.064 8.103-18.064 18.064z"/>
            <path fill="#FA3A4E" d="M30.758 18.065a5.166 5.166 0 0 1-5.161-5.162 5.166 5.166 0 0 1 5.161-5.161 5.166 5.166 0 0 1 5.161 5.161 5.166 5.166 0 0 1-5.16 5.162zm0-7.742a2.583 2.583 0 0 0-2.58 2.58 2.583 2.583 0 0 0 2.58 2.58 2.583 2.583 0 0 0 2.58-2.58 2.583 2.583 0 0 0-2.58-2.58z"/>
            <path fill="#F8172F" d="M30.78 58.067c.128.002.258.022.386.064l3.87 1.287c.677.226 1.043.955.82 1.632a1.295 1.295 0 0 1-1.633.819l-3.464-1.152-3.464 1.152a1.292 1.292 0 0 1-.814-2.45l3.87-1.288a1.3 1.3 0 0 1 .428-.064zM30.796 67.096a1.295 1.295 0 0 1-1.296-1.29c0-.715.57-1.291 1.283-1.291h.013a1.29 1.29 0 1 1 0 2.58z"/>
            <path fill="#9B9B9B" d="M59.612 65.817a1.286 1.286 0 0 1-.377-.913v-5.323h-9.161v18.062H77.17V59.58h-8.903v5.323a1.286 1.286 0 0 1-1.29 1.29h-6.452c-.357 0-.68-.144-.913-.377zm2.204-2.203h3.87v-4.033h-3.87v4.033zM65.283 57l-.604-2.418h-1.86L62.206 57h3.078zm2.66 0h8.009l-1.812-2.418h-6.801L67.943 57zm-2.198-4.999h8.982c.41-.018.823.162 1.087.516l3.871 5.165c.329.437.337 1.015.066 1.453v19.798c0 .714-.576 1.29-1.29 1.29H48.783c-.714 0-1.29-.576-1.29-1.29V58.29v-.027a1.281 1.281 0 0 1 .274-.82l3.871-4.947c.27-.347.684-.518 1.093-.494h12.904c.037-.002.073-.002.11 0zM59.543 57l.614-2.418h-6.875L51.39 57h8.153z"/>
        </g>
    </g>
</svg>
