<svg xmlns="http://www.w3.org/2000/svg" xmlns:xlink="http://www.w3.org/1999/xlink" width="80" height="77" viewBox="0 0 80 77">
    <defs>
        <path id="a" d="M0 0h80v80H0z"/>
    </defs>
    <g fill="none" fill-rule="evenodd" transform="translate(0 -2)">
        <mask id="b" fill="#fff">
            <use xlink:href="#a"/>
        </mask>
        <g fill-rule="nonzero" stroke="#FFF" stroke-width="2" mask="url(#b)">
            <path fill="#9B9B9B" d="M62.656 63c-3.23 0-5.977 2.097-6.958 5H12.344c-4.222 0-7.656-3.435-7.656-7.656 0-4.222 3.434-7.657 7.656-7.657h15c6.806 0 12.343-5.537 12.343-12.343C39.688 33.537 34.15 28 27.345 28H14.302a7.375 7.375 0 0 0-4.614-4.614v-5.698h12.656a2.344 2.344 0 0 0 2.343-2.344v-10A2.344 2.344 0 0 0 22.345 3h-15A2.344 2.344 0 0 0 5 5.344v18.042c-2.903.98-5 3.728-5 6.958 0 4.05 3.294 7.343 7.344 7.343 3.23 0 5.977-2.096 6.958-5h13.042c4.221 0 7.656 3.435 7.656 7.657C35 44.565 31.565 48 27.344 48h-15C5.537 48 0 53.537 0 60.344c0 6.806 5.537 12.343 12.344 12.343h43.354c.98 2.904 3.728 5 6.958 5 4.05 0 7.344-3.294 7.344-7.343C70 66.294 66.706 63 62.656 63zM9.688 7.687H20V13H9.687V7.687zM7.344 33a2.66 2.66 0 0 1-2.657-2.656 2.66 2.66 0 0 1 2.657-2.657A2.66 2.66 0 0 1 10 30.345 2.66 2.66 0 0 1 7.344 33zm55.312 40A2.66 2.66 0 0 1 60 70.344a2.66 2.66 0 0 1 2.656-2.656 2.66 2.66 0 0 1 2.657 2.656A2.66 2.66 0 0 1 62.656 73z"/>
            <path fill="#F8172F" d="M62.656 18c-4.05 0-7.343 3.294-7.343 7.344 0 4.05 3.294 7.343 7.343 7.343 4.05 0 7.344-3.294 7.344-7.343C70 21.294 66.706 18 62.656 18zm0 10A2.66 2.66 0 0 1 60 25.344a2.66 2.66 0 0 1 2.656-2.657 2.66 2.66 0 0 1 2.657 2.657A2.66 2.66 0 0 1 62.656 28z"/>
            <path fill="#F8172F" d="M62.656 8c-9.563 0-17.343 7.78-17.343 17.344a17.25 17.25 0 0 0 6.191 13.283l9.064 17.781a2.344 2.344 0 0 0 4.176 0l9.064-17.78A17.25 17.25 0 0 0 80 25.343C80 15.78 72.22 8 62.656 8zm7.836 27.283c-.265.21-.482.474-.635.775l-7.2 14.125-7.201-14.125a2.344 2.344 0 0 0-.636-.775 12.595 12.595 0 0 1-4.82-9.94c0-6.978 5.678-12.655 12.656-12.655 6.979 0 12.657 5.677 12.657 12.656 0 3.898-1.757 7.52-4.82 9.94z"/>
        </g>
    </g>
</svg>
