<svg xmlns="http://www.w3.org/2000/svg" xmlns:xlink="http://www.w3.org/1999/xlink" width="80" height="80" viewBox="0 0 80 80">
    <defs>
        <path id="a" d="M0 0h80v80H0z"/>
    </defs>
    <g fill="none" fill-rule="evenodd">
        <mask id="b" fill="#fff">
            <use xlink:href="#a"/>
        </mask>
        <g fill-rule="nonzero" stroke="#FFF" stroke-width=".8" mask="url(#b)">
            <path fill="#9B9B9B" d="M39.167.351l-4 1.649a4.192 4.192 0 0 0-2.269 5.47l1.029 2.481a25.47 25.47 0 0 0-5.258 5.257l-2.481-1.028a4.18 4.18 0 0 0-3.2 0 4.18 4.18 0 0 0-2.27 2.269l-1.665 4a4.186 4.186 0 0 0 2.27 5.47l3.673 1.518a1.603 1.603 0 0 0 2.106-.882 1.603 1.603 0 0 0-.882-2.106l-3.673-1.518c-.49-.196-.718-.768-.523-1.258l1.666-4a.964.964 0 0 1 1.257-.522l3.673 1.518a1.612 1.612 0 0 0 1.96-.587 22.127 22.127 0 0 1 6.22-6.22 1.625 1.625 0 0 0 .604-1.96l-1.518-3.673a.974.974 0 0 1 .522-1.258l4-1.649a.964.964 0 0 1 1.257.522l1.519 3.674a1.59 1.59 0 0 0 1.812.964 22.403 22.403 0 0 1 8.784 0 1.637 1.637 0 0 0 1.812-.964l1.518-3.673c.196-.49.768-.718 1.257-.523l4 1.666a.964.964 0 0 1 .523 1.257L61.37 9.918a1.612 1.612 0 0 0 .588 1.96 22.127 22.127 0 0 1 6.22 6.22 1.625 1.625 0 0 0 1.96.604l3.673-1.518a.964.964 0 0 1 1.257.522l1.65 4a.964.964 0 0 1-.522 1.257l-3.675 1.519a1.608 1.608 0 0 0-.963 1.812 22.403 22.403 0 0 1 0 8.784 1.637 1.637 0 0 0 .963 1.812l3.674 1.518c.49.196.718.768.522 1.257l-1.665 4c-.196.49-.767.719-1.257.523l-3.674-1.519a1.612 1.612 0 0 0-1.959.588 22.127 22.127 0 0 1-6.22 6.22 1.625 1.625 0 0 0-.604 1.96l1.518 3.673a.964.964 0 0 1-.522 1.257l-4 1.65a.964.964 0 0 1-1.257-.522l-1.519-3.675a1.609 1.609 0 0 0-2.106-.881 1.609 1.609 0 0 0-.882 2.106l1.519 3.673a4.18 4.18 0 0 0 2.27 2.27 4.247 4.247 0 0 0 1.6.326c.538 0 1.093-.114 1.6-.326l4-1.65a4.18 4.18 0 0 0 2.269-2.269 4.18 4.18 0 0 0 0-3.2L64.8 51.388a25.47 25.47 0 0 0 5.257-5.257l2.482 1.028a4.186 4.186 0 0 0 5.47-2.27l1.664-4a4.186 4.186 0 0 0-2.269-5.469l-2.482-1.028a25.74 25.74 0 0 0 0-7.429l2.482-1.028a4.18 4.18 0 0 0 2.27-2.27 4.18 4.18 0 0 0 0-3.2l-1.65-4a4.18 4.18 0 0 0-2.269-2.27 4.18 4.18 0 0 0-3.2 0l-2.482 1.03a25.392 25.392 0 0 0-5.24-5.258l1.028-2.481a4.18 4.18 0 0 0 0-3.2 4.18 4.18 0 0 0-2.27-2.27l-4-1.665a4.186 4.186 0 0 0-5.469 2.27l-1.028 2.481a25.74 25.74 0 0 0-7.429 0L44.637 2.62a4.18 4.18 0 0 0-2.27-2.269 4.18 4.18 0 0 0-3.2 0z"/>
            <path fill="#9B9B9B" d="M62.514 30.571c-.049-7.216-5.943-13.044-13.143-13.044h-.098A13.12 13.12 0 0 0 40 21.445a13.096 13.096 0 0 0-3.788 9.322c0 .882.735 1.6 1.617 1.6h.016a1.6 1.6 0 0 0 1.6-1.632 9.887 9.887 0 0 1 2.857-7.037 9.812 9.812 0 0 1 6.988-2.955h.065c5.437 0 9.878 4.408 9.91 9.845.033 5.47-4.375 9.943-9.845 9.992a1.6 1.6 0 0 0-1.6 1.632c0 .882.735 1.6 1.617 1.6h.016c7.265-.049 13.11-5.992 13.061-13.24z"/>
            <path fill="#F8172F" d="M22.09 79.306h3.15a3.498 3.498 0 0 0 3.495-3.494v-1.616a18.514 18.514 0 0 0 4.473-1.861l1.143 1.143a3.485 3.485 0 0 0 2.465 1.028c.93 0 1.813-.36 2.466-1.028l2.22-2.22a3.485 3.485 0 0 0 1.029-2.466c0-.93-.36-1.812-1.029-2.465l-1.143-1.143a18.514 18.514 0 0 0 1.861-4.474h1.617a3.498 3.498 0 0 0 3.494-3.494v-3.15a3.498 3.498 0 0 0-3.494-3.495H42.22a18.514 18.514 0 0 0-1.86-4.473l1.142-1.143a3.485 3.485 0 0 0 1.029-2.465c0-.93-.36-1.812-1.029-2.466l-2.22-2.22a3.485 3.485 0 0 0-2.466-1.028c-.93 0-1.812.359-2.465 1.028l-1.143 1.143a18.514 18.514 0 0 0-4.473-1.861v-1.617a3.498 3.498 0 0 0-3.494-3.493H22.09a3.498 3.498 0 0 0-3.494 3.493v1.617a18.514 18.514 0 0 0-4.474 1.86l-1.142-1.142a3.485 3.485 0 0 0-2.466-1.028c-.93 0-1.812.359-2.465 1.028l-2.22 2.22a3.498 3.498 0 0 0 0 4.931l1.142 1.143a18.514 18.514 0 0 0-1.86 4.473H3.493A3.498 3.498 0 0 0 0 54.065v3.151a3.498 3.498 0 0 0 3.494 3.494H5.11a18.514 18.514 0 0 0 1.861 4.474L5.83 66.327a3.498 3.498 0 0 0 0 4.93l2.22 2.22a3.485 3.485 0 0 0 2.465 1.03c.93 0 1.813-.36 2.466-1.03l1.142-1.142a18.514 18.514 0 0 0 4.474 1.86v1.617c.016 1.927 1.584 3.494 3.494 3.494zm-7.298-10.35a1.658 1.658 0 0 0-.898-.278c-.425 0-.833.163-1.143.473l-2.04 2.04a.25.25 0 0 1-.18.082.25.25 0 0 1-.18-.081l-2.22-2.22a.256.256 0 0 1 0-.36l2.04-2.04a1.608 1.608 0 0 0 .196-2.041 15.745 15.745 0 0 1-2.383-5.747A1.625 1.625 0 0 0 6.4 57.478H3.51a.258.258 0 0 1-.261-.262v-3.15c0-.148.114-.262.261-.262H6.4c.767 0 1.437-.539 1.584-1.306.408-2.057 1.208-4 2.383-5.747a1.629 1.629 0 0 0-.196-2.04l-2.04-2.042a.256.256 0 0 1 0-.359l2.22-2.22a.25.25 0 0 1 .18-.082.25.25 0 0 1 .18.082l2.04 2.073a1.608 1.608 0 0 0 2.04.196 15.745 15.745 0 0 1 5.748-2.383 1.625 1.625 0 0 0 1.306-1.584v-2.89c0-.147.114-.261.261-.261h3.151c.147 0 .261.114.261.261v2.89c0 .767.54 1.437 1.306 1.584 2.058.408 4 1.208 5.747 2.383a1.629 1.629 0 0 0 2.041-.196l2.041-2.04a.25.25 0 0 1 .18-.082.25.25 0 0 1 .18.081l2.22 2.22a.25.25 0 0 1 .081.18.25.25 0 0 1-.081.18l-2.041 2.04a1.608 1.608 0 0 0-.196 2.042 15.745 15.745 0 0 1 2.384 5.747 1.625 1.625 0 0 0 1.583 1.306h2.89c.147 0 .261.114.261.261v3.151a.258.258 0 0 1-.26.261h-2.89c-.768 0-1.437.539-1.584 1.306-.409 2.057-1.209 4-2.384 5.747a1.629 1.629 0 0 0 .196 2.041l2.04 2.04a.25.25 0 0 1 .082.18.25.25 0 0 1-.081.18l-2.22 2.22a.25.25 0 0 1-.18.082.25.25 0 0 1-.18-.082l-2.04-2.04a1.608 1.608 0 0 0-2.042-.196 15.745 15.745 0 0 1-5.747 2.383 1.625 1.625 0 0 0-1.306 1.584v2.89a.258.258 0 0 1-.26.261h-3.152a.258.258 0 0 1-.261-.261v-2.89c0-.767-.539-1.437-1.306-1.584-2.057-.44-4-1.24-5.747-2.416z"/>
            <path fill="#F8172F" d="M33.257 55.665c0-5.29-4.31-9.6-9.6-9.6s-9.584 4.31-9.584 9.6 4.31 9.6 9.6 9.6 9.584-4.31 9.584-9.6zm-15.95 0a6.376 6.376 0 0 1 6.366-6.367 6.376 6.376 0 0 1 6.368 6.367 6.376 6.376 0 0 1-6.368 6.368c-3.51 0-6.367-2.874-6.367-6.368z"/>
        </g>
    </g>
</svg>
