<svg xmlns="http://www.w3.org/2000/svg" xmlns:xlink="http://www.w3.org/1999/xlink" width="80" height="55" viewBox="0 0 80 55">
    <defs>
        <path id="a" d="M0 0h80v80H0z"/>
    </defs>
    <g fill="none" fill-rule="evenodd" transform="translate(0 -13)">
        <mask id="b" fill="#fff">
            <use xlink:href="#a"/>
        </mask>
        <g fill-rule="nonzero" mask="url(#b)">
            <path fill="#F8172F" d="M57.5 46.75v-30A3.754 3.754 0 0 0 53.75 13h-50A3.754 3.754 0 0 0 0 16.75v30a3.754 3.754 0 0 0 3.75 3.75h50a3.754 3.754 0 0 0 3.75-3.75zm-55 0v-30c0-.69.56-1.25 1.25-1.25h50c.69 0 1.25.56 1.25 1.25v30c0 .69-.56 1.25-1.25 1.25h-50c-.69 0-1.25-.56-1.25-1.25z"/>
            <path fill="#9B9B9B" d="M76.25 30.5h-15a1.25 1.25 0 0 0 0 2.5h15c.69 0 1.25.56 1.25 1.25v6.25H61.25a1.25 1.25 0 0 0 0 2.5H77.5v21.25c0 .69-.56 1.25-1.25 1.25h-50c-.69 0-1.25-.56-1.25-1.25v-10a1.25 1.25 0 0 0-2.5 0v10A3.754 3.754 0 0 0 26.25 68h50A3.754 3.754 0 0 0 80 64.25v-30a3.754 3.754 0 0 0-3.75-3.75z"/>
            <path fill="#F8172F" d="M26.25 39.25H20a1.25 1.25 0 0 0 0 2.5h6.25a1.25 1.25 0 0 0 0-2.5zM15 39.25H8.75a1.25 1.25 0 0 0 0 2.5H15a1.25 1.25 0 0 0 0-2.5zM48.75 39.25H42.5a1.25 1.25 0 0 0 0 2.5h6.25a1.25 1.25 0 0 0 0-2.5zM37.5 39.25h-6.25a1.25 1.25 0 0 0 0 2.5h6.25a1.25 1.25 0 0 0 0-2.5zM13.75 19.25H10A3.754 3.754 0 0 0 6.25 23v1.25A3.754 3.754 0 0 0 10 28h3.75a3.754 3.754 0 0 0 3.75-3.75V23a3.754 3.754 0 0 0-3.75-3.75zm1.25 5c0 .69-.56 1.25-1.25 1.25H10c-.69 0-1.25-.56-1.25-1.25V23c0-.69.56-1.25 1.25-1.25h3.75c.69 0 1.25.56 1.25 1.25v1.25zM46.25 19.25a4.988 4.988 0 0 0-3.75 1.698 4.988 4.988 0 0 0-3.75-1.698c-2.757 0-5 2.243-5 5s2.243 5 5 5a4.988 4.988 0 0 0 3.75-1.698 4.988 4.988 0 0 0 3.75 1.698c2.757 0 5-2.243 5-5s-2.243-5-5-5zm-7.5 7.5a2.503 2.503 0 0 1-2.5-2.5c0-1.378 1.122-2.5 2.5-2.5s2.5 1.122 2.5 2.5-1.122 2.5-2.5 2.5zm7.5 0a2.503 2.503 0 0 1-2.5-2.5c0-1.378 1.122-2.5 2.5-2.5s2.5 1.122 2.5 2.5-1.122 2.5-2.5 2.5z"/>
            <path fill="#9B9B9B" d="M71.25 53H47.5a1.25 1.25 0 0 0 0 2.5h23.75a1.25 1.25 0 0 0 0-2.5zM71.25 58h-15a1.25 1.25 0 0 0 0 2.5h15a1.25 1.25 0 0 0 0-2.5z"/>
        </g>
    </g>
</svg>
